# xmcd
#
# Track frame offsets: 
#        150
#        23004
#        45874
#        82255
#        93315
#        122584
#        134647
#        155433
#        183510
#        205767
#        232960
#
# Disc length: 3374 seconds
#
# Revision: 1
# Processed by: cddbd v1.5.2PL0 Copyright (c) Steve Scherf et al.
# Submitted via: ExactAudioCopyFreeDBPlugin 1.0
#
DISCID=870d2c0b
DTITLE=Silvia Donati and Standard 3io - Singin' in the brain
DYEAR=2004
DGENRE=Jazz
TTITLE0=Invitation
TTITLE1=Sing o' the times
TTITLE2=Slave to the rhythm
TTITLE3=Blusgat
TTITLE4=Village of the sun
TTITLE5=On Broadway
TTITLE6=Will be
TTITLE7=All blues
TTITLE8=Peyote
TTITLE9=On green dolphin street
TTITLE10=Lonely woman
EXTD=YEAR: 2004
EXTT0=
EXTT1=
EXTT2=
EXTT3=
EXTT4=
EXTT5=
EXTT6=
EXTT7=
EXTT8=
EXTT9=
EXTT10=
PLAYORDER=
